<svg width="21" height="20" viewBox="0 0 21 20" fill="none" xmlns="http://www.w3.org/2000/svg">
<g id="vuesax/bold/add-circle">
<g id="add-circle">
<path id="Vector" d="M10.3392 1.6665C5.74753 1.6665 2.00586 5.40817 2.00586 9.99984C2.00586 14.5915 5.74753 18.3332 10.3392 18.3332C14.9309 18.3332 18.6725 14.5915 18.6725 9.99984C18.6725 5.40817 14.9309 1.6665 10.3392 1.6665ZM13.6725 10.6248H10.9642V13.3332C10.9642 13.6748 10.6809 13.9582 10.3392 13.9582C9.99753 13.9582 9.71419 13.6748 9.71419 13.3332V10.6248H7.00586C6.66419 10.6248 6.38086 10.3415 6.38086 9.99984C6.38086 9.65817 6.66419 9.37484 7.00586 9.37484H9.71419V6.6665C9.71419 6.32484 9.99753 6.0415 10.3392 6.0415C10.6809 6.0415 10.9642 6.32484 10.9642 6.6665V9.37484H13.6725C14.0142 9.37484 14.2975 9.65817 14.2975 9.99984C14.2975 10.3415 14.0142 10.6248 13.6725 10.6248Z" fill="white"/>
</g>
</g>
</svg>
