<svg width="18" height="18" viewBox="0 0 18 18" fill="none" xmlns="http://www.w3.org/2000/svg">
<path d="M0.00116492 8.99287C-0.0011662 9.39149 0.0244774 9.78545 0.0734311 10.1701C0.131709 10.6317 0.224954 11.0839 0.352001 11.5221C1.20286 14.471 3.527 16.7975 6.47821 17.6483C6.91529 17.7754 7.36753 17.8686 7.83026 17.9269C8.19042 17.9735 8.55757 17.9969 8.93055 17.9992C9.57278 18.0015 10.1999 17.9374 10.8048 17.8104C11.5018 17.6658 12.1685 17.4397 12.7956 17.1425C13.7245 16.7042 14.5661 16.1098 15.2864 15.3941C15.7631 14.9221 16.1874 14.3953 16.5487 13.8253C16.6314 13.6948 16.7107 13.5619 16.7865 13.4267C17.1396 12.8019 17.4194 12.1306 17.6128 11.4231C17.6781 11.1853 17.7341 10.944 17.7807 10.7004C17.8273 10.4557 17.8634 10.2062 17.8891 9.95446C17.9194 9.66307 17.9345 9.36818 17.9357 9.0698C17.938 8.70614 17.9171 8.34598 17.8751 7.99282C17.8471 7.74572 17.8098 7.50211 17.7609 7.26201C17.0545 3.73035 14.2735 0.945814 10.7372 0.238317C10.4959 0.189363 10.2523 0.150899 10.0052 0.122925C9.67651 0.0844616 9.34316 0.0646476 9.00515 0.0634821C8.68112 0.0611509 8.36176 0.0774681 8.04589 0.110104C7.79413 0.134581 7.54353 0.17188 7.29876 0.218502C7.054 0.263959 6.81272 0.319906 6.57611 0.385177C5.86862 0.579826 5.19725 0.859561 4.57134 1.21156C4.43614 1.28732 4.30326 1.36658 4.17272 1.44934C3.60276 1.81183 3.07709 2.23493 2.60387 2.71164C1.88821 3.43196 1.29378 4.2735 0.855524 5.20245C0.558305 5.83069 0.332185 6.4974 0.188821 7.1944C0.0676022 7.77485 0.00349669 8.37512 0 8.9917L0.00116492 8.99287Z" fill="#228B22"/>
<path opacity="0.1" d="M0.00116492 8.99287C-0.0011662 9.39149 0.0244774 9.78545 0.0734311 10.1701C0.131709 10.6317 0.224954 11.0839 0.352001 11.5221C1.20286 14.471 3.527 16.7975 6.47821 17.6483C6.91529 17.7754 7.36753 17.8686 7.83026 17.9269C8.19042 17.9735 8.55757 17.9969 8.93055 17.9992C9.57278 18.0015 10.1999 17.9374 10.8048 17.8104C11.5018 17.6658 12.1685 17.4397 12.7956 17.1425C13.7245 16.7042 14.5661 16.1098 15.2864 15.3941C15.7631 14.9221 16.1874 14.3953 16.5487 13.8253C16.6314 13.6948 16.7107 13.5619 16.7865 13.4267C17.1396 12.8019 17.4194 12.1306 17.6128 11.4231C17.6781 11.1853 17.7341 10.944 17.7807 10.7004C17.8273 10.4557 17.8634 10.2062 17.8891 9.95446C17.9194 9.66307 17.9345 9.36818 17.9357 9.0698C17.938 8.70614 17.9171 8.34598 17.8751 7.99282C17.8471 7.74572 17.8098 7.50211 17.7609 7.26201C17.0545 3.73035 14.2735 0.945814 10.7372 0.238317C10.4959 0.189363 10.2523 0.150899 10.0052 0.122925C9.67651 0.0844616 9.34316 0.0646476 9.00515 0.0634821C8.68112 0.0611509 8.36176 0.0774681 8.04589 0.110104C7.79413 0.134581 7.54353 0.17188 7.29876 0.218502C7.054 0.263959 6.81272 0.319906 6.57611 0.385177C5.86862 0.579826 5.19725 0.859561 4.57134 1.21156C4.43614 1.28732 4.30326 1.36658 4.17272 1.44934C3.60276 1.81183 3.07709 2.23493 2.60387 2.71164C1.88821 3.43196 1.29378 4.2735 0.855524 5.20245C0.558305 5.83069 0.332185 6.4974 0.188821 7.1944C0.0676022 7.77485 0.00349669 8.37512 0 8.9917L0.00116492 8.99287Z" fill="white"/>
<path opacity="0.05" d="M17.5861 6.54279C17.6537 6.7794 17.7143 7.01834 17.7621 7.26311C17.811 7.50438 17.8495 7.74681 17.8763 7.99391C17.9183 8.34708 17.9381 8.70607 17.9369 9.07089C17.9358 9.36928 17.9206 9.66417 17.8903 9.95556C17.8647 10.2073 17.8285 10.4568 17.7819 10.7015C17.7353 10.9463 17.6793 11.1864 17.6141 11.4242C17.4194 12.1317 17.1397 12.803 16.7877 13.4289C16.7119 13.5641 16.6327 13.697 16.5499 13.8276C16.1886 14.3975 15.7643 14.9244 15.2876 15.3964C14.5673 16.1121 13.7257 16.7077 12.7968 17.1448C12.1697 17.442 11.503 17.6681 10.806 17.8126C10.2011 17.9385 9.574 18.0038 8.93177 18.0014C8.60075 18.0003 8.27439 17.9781 7.9527 17.9408L17.5872 6.54395L17.5861 6.54279Z" fill="#002421"/>
<path opacity="0.05" d="M17.447 11.9591C17.271 12.4708 17.0484 12.9615 16.7862 13.4266C16.7104 13.5618 16.6311 13.6947 16.5484 13.8252C16.1871 14.3952 15.7628 14.922 15.2861 15.3941C14.6916 15.985 14.0121 16.492 13.2708 16.8988L17.447 11.9591Z" fill="#002421"/>
<path opacity="0.15" d="M16.3602 3.95179C16.6469 4.36906 16.8987 4.81197 17.1132 5.2747L6.62075 17.6868C6.57296 17.674 6.52517 17.6623 6.47855 17.6483C6.03447 17.5201 5.60554 17.3546 5.19293 17.1623L16.3602 3.95062V3.95179Z" fill="white"/>
<path opacity="0.15" d="M12.9299 0.983093C13.4031 1.21621 13.8507 1.49011 14.2727 1.79899L2.72425 15.4617C2.34777 15.0969 2.0051 14.6983 1.69739 14.2717L12.9299 0.983093Z" fill="white"/>
<path opacity="0.15" d="M11.6186 0.463043C11.896 0.549295 12.1675 0.647203 12.4333 0.759097L1.39073 13.8216C1.23687 13.578 1.09118 13.3285 0.960632 13.071L11.6186 0.463043Z" fill="white"/>
<path opacity="0.15" d="M0.0266776 8.38317C0.0383333 8.21766 0.0558165 8.05448 0.0756311 7.8913C0.0826245 7.83652 0.0884532 7.7829 0.0966122 7.72812C0.104771 7.67217 0.11293 7.61622 0.122255 7.56144C0.142069 7.43906 0.164214 7.31667 0.188691 7.19662C0.332055 6.49961 0.55934 5.83291 0.855394 5.20467C1.29365 4.27455 1.88808 3.43418 2.60374 2.71386C3.07696 2.23715 3.60263 1.81405 4.17259 1.45156C4.30313 1.3688 4.43601 1.28954 4.57121 1.21378C5.19712 0.860615 5.86848 0.58088 6.57598 0.387397C6.66456 0.36292 6.75315 0.341939 6.8429 0.319794L0.0255127 8.3855L0.0266776 8.38317Z" fill="white"/>
<path d="M2.28583 9.03237C2.28583 12.5734 5.03772 15.4686 8.52043 15.6994C8.66846 15.7087 8.81882 15.7146 8.96917 15.7146C12.6605 15.7146 15.6514 12.7237 15.6514 9.03237C15.6514 5.34103 12.6605 2.34903 8.96917 2.34903C8.81882 2.34903 8.66846 2.35486 8.52043 2.36418C5.03772 2.59496 2.28583 5.49139 2.28583 9.03237Z" fill="#228B22"/>
<path opacity="0.4" d="M2.28583 9.03237C2.28583 12.5734 5.03772 15.4686 8.52043 15.6994C8.66846 15.7087 8.81882 15.7146 8.96917 15.7146C12.6605 15.7146 15.6514 12.7237 15.6514 9.03237C15.6514 5.34103 12.6605 2.34903 8.96917 2.34903C8.81882 2.34903 8.66846 2.35486 8.52043 2.36418C5.03772 2.59496 2.28583 5.49139 2.28583 9.03237Z" fill="#002421"/>
<path d="M2.58289 9.0326C2.58289 9.14683 2.58522 9.25989 2.59221 9.37295C2.76122 12.5992 5.32429 15.1891 8.54008 15.4024C8.56922 15.4047 8.59836 15.4059 8.6275 15.4082C8.74056 15.4141 8.85362 15.4176 8.96901 15.4176C9.66951 15.4176 10.3444 15.3045 10.9749 15.0959C12.4727 14.6005 13.7257 13.5655 14.5031 12.2204C14.9577 11.4313 15.2502 10.5362 15.3295 9.57925C15.3458 9.39859 15.354 9.21676 15.354 9.0326C15.354 8.86243 15.3481 8.69575 15.3342 8.53024C15.3073 8.18174 15.2526 7.8414 15.1721 7.51271C14.6092 5.20722 12.7944 3.39244 10.4889 2.82947C10.159 2.74905 9.81871 2.6931 9.47137 2.66746C9.30586 2.65464 9.13802 2.64764 8.96901 2.64764C8.82565 2.64764 8.68112 2.65347 8.54125 2.66163C8.50162 2.66396 8.46082 2.66746 8.4212 2.67095C7.46427 2.75138 6.56911 3.04277 5.78119 3.49851C4.43613 4.27477 3.40111 5.52659 2.90575 7.0255C2.69711 7.65724 2.58405 8.3321 2.58405 9.0326H2.58289Z" fill="#228B22"/>
<path opacity="0.5" d="M2.58289 9.0326C2.58289 9.14683 2.58522 9.25989 2.59221 9.37295C2.76122 12.5992 5.32429 15.1891 8.54008 15.4024C8.56922 15.4047 8.59836 15.4059 8.6275 15.4082C8.74056 15.4141 8.85362 15.4176 8.96901 15.4176C9.66951 15.4176 10.3444 15.3045 10.9749 15.0959C12.4727 14.6005 13.7257 13.5655 14.5031 12.2204C14.9577 11.4313 15.2502 10.5362 15.3295 9.57925C15.3458 9.39859 15.354 9.21676 15.354 9.0326C15.354 8.86243 15.3481 8.69575 15.3342 8.53024C15.3073 8.18174 15.2526 7.8414 15.1721 7.51271C14.6092 5.20722 12.7944 3.39244 10.4889 2.82947C10.159 2.74905 9.81871 2.6931 9.47137 2.66746C9.30586 2.65464 9.13802 2.64764 8.96901 2.64764C8.82565 2.64764 8.68112 2.65347 8.54125 2.66163C8.50162 2.66396 8.46082 2.66746 8.4212 2.67095C7.46427 2.75138 6.56911 3.04277 5.78119 3.49851C4.43613 4.27477 3.40111 5.52659 2.90575 7.0255C2.69711 7.65724 2.58405 8.3321 2.58405 9.0326H2.58289Z" fill="#002421"/>
<path d="M13.4673 13.5631C13.8682 13.1645 14.2191 12.7146 14.5035 12.2215C14.958 11.4324 15.2506 10.5361 15.3299 9.58035C15.3462 9.39969 15.3543 9.21786 15.3543 9.0337C15.3543 8.86353 15.3485 8.69686 15.3345 8.53134C15.3077 8.18284 15.2529 7.8425 15.1725 7.51381C14.6095 5.20832 12.7948 3.39354 10.4893 2.83057C10.1594 2.75015 9.81907 2.6942 9.47173 2.66856C9.30622 2.65574 9.13838 2.64874 8.96937 2.64874C8.82601 2.64874 8.68148 2.65457 8.54161 2.66273C8.50198 2.66506 8.46119 2.66856 8.42156 2.67206C7.46463 2.75248 6.56948 3.04387 5.78155 3.4996C5.49949 3.66278 5.2349 3.85044 4.98198 4.05325C4.28264 4.75026 3.74182 5.60694 3.42479 6.5662C3.21615 7.19794 3.10309 7.8728 3.10309 8.57331C3.10309 8.68753 3.10542 8.80059 3.11241 8.91365C3.28142 12.1399 5.8445 14.7298 9.06029 14.9431C9.08943 14.9454 9.11857 14.9466 9.1477 14.9489C9.26076 14.9548 9.37382 14.9583 9.48922 14.9583C10.1897 14.9583 10.8646 14.8452 11.4952 14.6366C12.219 14.3976 12.8845 14.0293 13.4673 13.5643V13.5631Z" fill="#228B22"/>
<path opacity="0.25" d="M13.4673 13.5631C13.8682 13.1645 14.2191 12.7146 14.5035 12.2215C14.958 11.4324 15.2506 10.5361 15.3299 9.58035C15.3462 9.39969 15.3543 9.21786 15.3543 9.0337C15.3543 8.86353 15.3485 8.69686 15.3345 8.53134C15.3077 8.18284 15.2529 7.8425 15.1725 7.51381C14.6095 5.20832 12.7948 3.39354 10.4893 2.83057C10.1594 2.75015 9.81907 2.6942 9.47173 2.66856C9.30622 2.65574 9.13838 2.64874 8.96937 2.64874C8.82601 2.64874 8.68148 2.65457 8.54161 2.66273C8.50198 2.66506 8.46119 2.66856 8.42156 2.67206C7.46463 2.75248 6.56948 3.04387 5.78155 3.4996C5.49949 3.66278 5.2349 3.85044 4.98198 4.05325C4.28264 4.75026 3.74182 5.60694 3.42479 6.5662C3.21615 7.19794 3.10309 7.8728 3.10309 8.57331C3.10309 8.68753 3.10542 8.80059 3.11241 8.91365C3.28142 12.1399 5.8445 14.7298 9.06029 14.9431C9.08943 14.9454 9.11857 14.9466 9.1477 14.9489C9.26076 14.9548 9.37382 14.9583 9.48922 14.9583C10.1897 14.9583 10.8646 14.8452 11.4952 14.6366C12.219 14.3976 12.8845 14.0293 13.4673 13.5643V13.5631Z" fill="#002421"/>
<path d="M4.5722 1.21275C8.43139 -0.785026 11.5703 0.253491 13.6659 1.50065C16.6917 3.53455 18.6091 6.9415 17.5624 11.4441V11.4347C17.2221 12.7087 16.5356 14.1365 15.2861 15.3942C16.5635 14.1389 17.3037 12.6889 17.6638 11.3998V11.4079C18.6266 7.6758 17.4144 4.71644 15.3921 2.62658C13.2265 0.628804 9.55499 -1.3445 4.57337 1.21275H4.5722Z" fill="#DDEDC7"/>
<path d="M8.00772 4.31316L8.0019 5.17334C8.0019 5.17334 7.11723 5.01716 6.10902 5.81207C6.06589 5.84587 6.02976 5.87851 5.99246 5.91115C5.58685 6.26897 5.3514 6.75501 5.35024 7.37393L5.34674 7.37742C5.34674 8.03597 5.6055 8.50686 5.99946 8.84953C6.03326 8.87867 6.07289 8.90664 6.10552 8.93578L6.11718 8.94511C6.15681 8.97308 6.19644 9.00106 6.23607 9.02903C6.27103 9.05351 6.306 9.07682 6.34563 9.0978C6.36311 9.10596 6.37593 9.11761 6.39109 9.12461C6.41906 9.14326 6.4482 9.16074 6.4785 9.17472C6.7256 9.31226 6.99835 9.41949 7.27109 9.51507C7.40513 9.56053 7.54383 9.60365 7.6837 9.64095C7.88301 9.69806 8.08465 9.75051 8.27464 9.79947C8.35506 9.81812 8.42849 9.83677 8.50309 9.85658C9.04857 9.98829 9.44719 10.0967 9.69896 10.2377C9.8598 10.3263 9.96704 10.4254 10.0195 10.5548C10.0475 10.6247 10.0626 10.7016 10.0638 10.7867C10.0626 11.1212 9.78637 11.3916 9.02759 11.3648C8.22102 11.3345 7.76762 11.0117 7.65922 10.5233L5.44931 10.9382C5.78266 11.9523 6.68481 12.6143 8.09864 12.8556L8.09631 13.964L9.91925 14.0316L9.92158 12.9232C10.6874 12.8591 11.3168 12.6516 11.7515 12.2996L11.7632 12.2903C12.2014 11.929 12.4462 11.4254 12.4485 10.7681C12.4555 9.3076 11.2958 8.7831 10.0533 8.44508C8.89472 8.13504 7.86203 8.05695 7.86436 7.34829C7.86786 6.90537 8.27114 6.72005 8.86674 6.74219C9.81901 6.77599 10.1897 7.3378 10.2643 7.74574L12.5919 7.32264C12.5383 7.10235 12.4578 6.90304 12.3623 6.72238C12.1839 6.39719 11.9368 6.13493 11.6455 5.92513C11.1279 5.55215 10.4706 5.34235 9.80969 5.23861L9.81551 4.12667L8.01122 4.02643L8.00656 4.30966L8.00772 4.31316Z" fill="#228B22"/>
<path opacity="0.1" d="M8.00772 4.31316L8.0019 5.17334C8.0019 5.17334 7.11723 5.01716 6.10902 5.81207C6.06589 5.84587 6.02976 5.87851 5.99246 5.91115C5.58685 6.26897 5.3514 6.75501 5.35024 7.37393L5.34674 7.37742C5.34674 8.03597 5.6055 8.50686 5.99946 8.84953C6.03326 8.87867 6.07289 8.90664 6.10552 8.93578L6.11718 8.94511C6.15681 8.97308 6.19644 9.00106 6.23607 9.02903C6.27103 9.05351 6.306 9.07682 6.34563 9.0978C6.36311 9.10596 6.37593 9.11761 6.39109 9.12461C6.41906 9.14326 6.4482 9.16074 6.4785 9.17472C6.7256 9.31226 6.99835 9.41949 7.27109 9.51507C7.40513 9.56053 7.54383 9.60365 7.6837 9.64095C7.88301 9.69806 8.08465 9.75051 8.27464 9.79947C8.35506 9.81812 8.42849 9.83677 8.50309 9.85658C9.04857 9.98829 9.44719 10.0967 9.69896 10.2377C9.8598 10.3263 9.96704 10.4254 10.0195 10.5548C10.0475 10.6247 10.0626 10.7016 10.0638 10.7867C10.0626 11.1212 9.78637 11.3916 9.02759 11.3648C8.22102 11.3345 7.76762 11.0117 7.65922 10.5233L5.44931 10.9382C5.78266 11.9523 6.68481 12.6143 8.09864 12.8556L8.09631 13.964L9.91925 14.0316L9.92158 12.9232C10.6874 12.8591 11.3168 12.6516 11.7515 12.2996L11.7632 12.2903C12.2014 11.929 12.4462 11.4254 12.4485 10.7681C12.4555 9.3076 11.2958 8.7831 10.0533 8.44508C8.89472 8.13504 7.86203 8.05695 7.86436 7.34829C7.86786 6.90537 8.27114 6.72005 8.86674 6.74219C9.81901 6.77599 10.1897 7.3378 10.2643 7.74574L12.5919 7.32264C12.5383 7.10235 12.4578 6.90304 12.3623 6.72238C12.1839 6.39719 11.9368 6.13493 11.6455 5.92513C11.1279 5.55215 10.4706 5.34235 9.80969 5.23861L9.81551 4.12667L8.01122 4.02643L8.00656 4.30966L8.00772 4.31316Z" fill="white"/>
<path d="M12.4472 10.7714C12.4262 10.2457 12.2526 9.78762 11.9216 9.44611C11.5975 9.09877 11.136 8.85983 10.6231 8.6815C10.1184 8.49268 9.54847 8.37612 8.99949 8.23275C8.72791 8.15816 8.45867 8.07657 8.23255 7.95185C8.01226 7.82364 7.85374 7.62666 7.86306 7.35275C7.87239 7.61967 8.04489 7.798 8.27567 7.91106C8.50645 8.02645 8.77803 8.09988 9.0566 8.16515C9.6149 8.29453 10.1872 8.41225 10.7035 8.59524C11.2141 8.7829 11.6849 9.02417 11.9973 9.39016C12.1535 9.57199 12.2782 9.77829 12.354 10.0102C12.4251 10.2457 12.4531 10.5021 12.4484 10.7714H12.4472Z" fill="white"/>
<path d="M8.01239 4.02881L9.64301 4.25842L9.81086 5.24099L9.81668 4.12905L8.01239 4.02881Z" fill="#DDEDC7"/>
<path d="M8.09724 12.8579L8.24993 13.8405L9.91785 14.0351L8.09491 13.9664L8.09724 12.8579Z" fill="#DDEDC7"/>
<path opacity="0.15" d="M5.44812 10.9406C5.50756 11.1224 5.59265 11.2903 5.68939 11.4488L6.32462 10.7751L5.44812 10.9394V10.9406Z" fill="white"/>
<path opacity="0.15" d="M12.4448 10.7228C12.4355 10.0841 12.2 9.62833 11.8317 9.29031L8.09607 13.2462V13.9677L9.3374 14.0143L9.91901 13.3989V12.9269C10.0973 12.9117 10.2675 12.8884 10.4295 12.8581L12.4448 10.724V10.7228Z" fill="white"/>
<path opacity="0.15" d="M5.35669 7.59316C5.38816 7.93467 5.49539 8.22023 5.65624 8.46034L9.7497 4.12561L8.68671 4.06616L8.00485 4.78881L8.00252 5.17228C8.00252 5.17228 7.86848 5.14897 7.64819 5.16645L5.35786 7.59199L5.35669 7.59316Z" fill="white"/>
<path opacity="0.15" d="M6.1172 8.94499C6.15683 8.97297 6.19646 9.00094 6.23609 9.02892C6.27105 9.05339 6.30602 9.0767 6.34565 9.09768C6.36313 9.10584 6.37595 9.1175 6.39111 9.12449C6.41908 9.14314 6.44822 9.16062 6.47852 9.17461C6.72562 9.31215 6.99837 9.41938 7.27111 9.51496C7.33288 9.53594 7.39699 9.55342 7.45993 9.57323L8.81315 8.14076C8.24902 7.98224 7.86321 7.78409 7.86438 7.35167C7.86788 6.90875 8.27116 6.72343 8.86676 6.74558C9.30268 6.76073 9.61273 6.8901 9.83302 7.06144L11.1676 5.64878C10.7492 5.44597 10.2829 5.31543 9.81204 5.24083L9.81437 4.82123L6.00647 8.85292C6.03911 8.88089 6.0764 8.9077 6.10787 8.9345L6.11953 8.94383L6.1172 8.94499Z" fill="white"/>
<path d="M3.23203 3.66037L3.38005 1.71155L3.52925 3.66037L5.47807 3.8084L3.52925 3.95642L3.38005 5.90525L3.23203 3.95642L1.2832 3.8084L3.23203 3.66037Z" fill="white"/>
<path d="M4.76107 5.25838L4.83217 4.31427L4.90443 5.25838L5.84854 5.33064L4.90443 5.40291L4.83217 6.34701L4.76107 5.40291L3.8158 5.33064L4.76107 5.25838Z" fill="white"/>
</svg>
