<svg width="68" height="66" viewBox="0 0 68 66" fill="none" xmlns="http://www.w3.org/2000/svg">
<path d="M0 35.945C0 40.6756 1.33055 45.0753 3.69006 48.9202C6.2802 53.1422 10.1051 56.7025 14.7744 59.3168C17.0985 60.6186 19.6354 61.682 22.3284 62.4823C21.7217 62.7882 21.303 63.4106 21.303 64.1362C21.303 65.1677 22.1333 66 23.1587 66H44.8378C45.8632 66 46.6934 65.1677 46.6934 64.1362C46.6934 63.4106 46.2748 62.7882 45.6716 62.4823C48.872 61.5362 51.8489 60.206 54.5171 58.5521C59.8854 55.2336 64.0083 50.6026 66.2117 45.1536C67.3684 42.2868 68 39.1924 68 35.945H0ZM41.5345 48.6499L34.0018 56.201L26.4655 48.6499C24.5495 46.7293 24.5495 43.6135 26.4655 41.6928C28.3815 39.7722 31.4897 39.7686 33.4092 41.6928L34.0018 42.2833L34.5908 41.6928C36.5103 39.7686 39.6149 39.7686 41.5345 41.6928C43.454 43.6171 43.4505 46.7293 41.5345 48.6499Z" fill="url(#paint0_linear_183_10937)"/>
<path d="M26.0114 31.4955L19.4225 30.4498H25.536C25.206 29.7918 24.7908 29.0911 24.2764 28.4046H15.2748L23.0061 26.9855C22.0801 26.1141 20.9376 25.3565 19.529 24.8763C21.4946 23.3077 24.3438 20.7753 23.7442 19.662C22.7649 17.8481 19.5857 20.5583 19.4367 20.6899C19.6567 20.4445 24.5035 15.0773 21.7501 13.8609C19.1813 12.7298 17.4604 17.8516 17.1765 18.7657C17.4888 17.6275 19.5538 9.69943 15.438 10.0444C10.4422 10.4641 13.2736 21.2306 13.2736 21.2306C13.2736 21.2306 10.3712 16.9802 8.87746 18.8582C7.51498 20.5761 10.9709 23.3291 13.0181 24.7411C12.5285 24.8834 12.0708 25.0577 11.6415 25.2604C9.05487 26.4733 7.49015 28.6394 6.58182 30.4676L10.9176 31.1967L11.9856 31.3746L10.8786 31.524L5.84381 32.2104C5.54932 33.0534 5.44287 33.6118 5.44287 33.6118H26.6856C26.6856 33.6118 26.5117 32.7226 26.0114 31.4955ZM20.7673 21.8779C19.7277 23.0872 18.7306 23.9515 18.0281 24.4957C17.8223 24.4602 17.6165 24.4281 17.4072 24.4032C18.3084 23.6101 19.5857 22.5644 20.7673 21.8779ZM19.16 18.5381C18.6632 20.3307 17.4888 22.8774 16.7756 24.3463C16.655 24.3392 16.5272 24.3392 16.4031 24.3357C16.8572 22.9948 17.7726 20.6295 19.16 18.5381ZM14.0329 24.5064C12.454 22.9094 11.1376 21.1417 11.056 21.0314C11.1589 21.1025 13.0749 22.4719 14.6645 24.4104C14.448 24.4353 14.2387 24.4673 14.0329 24.5064ZM15.037 15.7211C15.665 19.0218 15.9205 22.5822 16.0163 24.325C15.8708 24.325 15.7325 24.3321 15.5941 24.3392C15.2535 23.1192 14.6538 20.2062 15.037 15.7211Z" fill="url(#paint1_linear_183_10937)"/>
<path d="M45.991 33.6118H29.0238C29.0238 33.6118 30.8688 30.6205 34.7079 29.5214C35.4814 29.2974 36.333 29.1551 37.2697 29.1266C34.7257 27.5474 33.9344 24.4281 35.5666 21.6645C37.3655 22.3545 38.5541 23.6954 39.0012 25.2639C39.8598 23.8732 41.3713 22.9058 43.2944 22.7386C44.0714 25.7121 42.6238 28.3833 39.9733 29.3258C44.664 30.2008 45.991 33.6118 45.991 33.6118Z" fill="url(#paint2_linear_183_10937)"/>
<path d="M29.3892 13.3558C29.3892 13.3558 32.3519 13.4162 35.7261 17.0406C34.6794 12.6942 30.5139 10.5815 26.391 12.3243C27.3738 16.5462 31.2839 18.6838 35.2649 17.2825L29.3892 13.3558Z" fill="url(#paint3_linear_183_10937)"/>
<path d="M36.2193 2.0309C36.2193 2.0309 32.9692 2.8383 30.1449 7.68266C30.2194 2.62489 34.2891 -0.746958 39.2742 0.142242C39.2388 5.04351 35.4565 8.37979 30.7161 7.83205L36.2228 2.02735L36.2193 2.0309Z" fill="url(#paint4_linear_183_10937)"/>
<path d="M46.7466 15.2017C46.7466 15.2017 46.225 10.9833 40.5764 6.69385C46.9098 7.55104 50.5218 13.1886 48.652 19.3312C42.5102 18.5487 38.8981 13.2775 40.2997 7.38743L46.7431 15.2017H46.7466Z" fill="url(#paint5_linear_183_10937)"/>
<path d="M63.65 19.3169C63.9835 20.5369 63.7955 22.454 63.3945 24.4956L59.0339 24.9936L63.1887 25.4702C62.8091 27.1526 62.3159 28.8527 61.8724 30.2648L54.73 30.7165L52.5727 30.8552L54.7087 31.0259L61.4501 31.5701C61.035 32.8079 60.737 33.6117 60.737 33.6117H48.1482V33.5975C48.2617 33.2916 50.0216 28.3121 51.8773 23.9586L53.3994 23.6811L52.1824 23.2472C52.5976 22.2904 53.0162 21.3834 53.4172 20.576H60.3147L55.5425 19.7331L53.9991 19.4592C54.2652 18.9755 54.5206 18.5522 54.7584 18.2214C55.0422 17.8266 55.3686 17.4852 55.7306 17.2042C56.387 16.6814 57.1534 16.347 57.9481 16.187C56.9972 14.0351 54.6129 8.31931 55.287 6.35952C56.1031 3.99069 58.5655 13.4269 58.7003 13.9497C58.6116 13.3415 56.8482 1.77124 58.4023 1.02787C59.9954 0.266718 59.9954 13.8217 59.9954 13.8217C59.9954 13.8217 61.5069 0.661522 62.8091 0.974521C64.317 1.33731 61.5779 13.1317 61.3792 13.9995C61.5992 13.2953 64.0935 5.39207 65.2573 6.11766C66.3359 6.78989 62.8446 15.1377 62.0462 17.0015C62.7984 17.5457 63.3803 18.321 63.65 19.3169Z" fill="url(#paint6_linear_183_10937)"/>
<path opacity="0.3" d="M46.6935 64.1362C46.6935 65.1677 45.8632 66 44.8378 66H23.1587C22.1333 66 21.303 65.1677 21.303 64.1362C21.303 63.4107 21.7217 62.7882 22.3284 62.4823C19.6354 61.6821 17.0985 60.6186 14.7744 59.3168C10.1051 56.7025 6.2802 53.1422 3.69006 48.9203C12.6243 55.3723 30.0704 64.1007 54.5171 58.5521C51.8489 60.206 48.872 61.5362 45.6716 62.4823C46.2748 62.7882 46.6935 63.4107 46.6935 64.1362Z" fill="url(#paint7_linear_183_10937)"/>
<path opacity="0.3" d="M34.7079 29.5215L34.2041 33.6118H29.0238C29.0238 33.6118 30.8688 30.6206 34.7079 29.5215Z" fill="#81B73A"/>
<path d="M63.0788 44.9438C61.7802 47.0957 58.2782 49.1977 56.4934 48.1165C54.7087 47.0352 55.5674 43.4713 56.866 41.3159C58.1646 39.164 60.7512 37.0121 62.5359 38.0934C64.3206 39.1747 64.3739 42.7884 63.0752 44.9402L63.0788 44.9438Z" fill="url(#paint8_linear_183_10937)"/>
<defs>
<linearGradient id="paint0_linear_183_10937" x1="40.2394" y1="66.1921" x2="34.3362" y2="38.9494" gradientUnits="userSpaceOnUse">
<stop stop-color="#228B22"/>
<stop offset="1" stop-color="#9BD84B"/>
</linearGradient>
<linearGradient id="paint1_linear_183_10937" x1="16.066" y1="33.2526" x2="16.1943" y2="19.0609" gradientUnits="userSpaceOnUse">
<stop stop-color="#214A2A"/>
<stop offset="0.486665" stop-color="#9CD84C"/>
</linearGradient>
<linearGradient id="paint2_linear_183_10937" x1="37.6209" y1="33.0782" x2="39.2714" y2="25.3509" gradientUnits="userSpaceOnUse">
<stop stop-color="#8EC545"/>
<stop offset="1" stop-color="#002421"/>
</linearGradient>
<linearGradient id="paint3_linear_183_10937" x1="33.874" y1="21.9952" x2="27.1467" y2="4.64909" gradientUnits="userSpaceOnUse">
<stop stop-color="#8EC545"/>
<stop offset="0.34" stop-color="#002421"/>
</linearGradient>
<linearGradient id="paint4_linear_183_10937" x1="40.6687" y1="19.3596" x2="33.9413" y2="2.0135" gradientUnits="userSpaceOnUse">
<stop stop-color="#002421"/>
<stop offset="1" stop-color="#8EC545"/>
</linearGradient>
<linearGradient id="paint5_linear_183_10937" x1="46.1967" y1="17.2184" x2="39.4693" y2="-0.131281" gradientUnits="userSpaceOnUse">
<stop stop-color="#002421"/>
<stop offset="0.492371" stop-color="#8EC545"/>
</linearGradient>
<linearGradient id="paint6_linear_183_10937" x1="55.5319" y1="33.5477" x2="58.0704" y2="7.19299" gradientUnits="userSpaceOnUse">
<stop stop-color="#264F2B"/>
<stop offset="0.43" stop-color="#9CD84C"/>
</linearGradient>
<linearGradient id="paint7_linear_183_10937" x1="29.1036" y1="48.9203" x2="29.1036" y2="66" gradientUnits="userSpaceOnUse">
<stop stop-color="#8EC545"/>
<stop offset="1" stop-color="#012522"/>
</linearGradient>
<linearGradient id="paint8_linear_183_10937" x1="57.3592" y1="48.12" x2="63.8202" y2="35.8265" gradientUnits="userSpaceOnUse">
<stop offset="0.38" stop-color="#BFF877"/>
<stop offset="1" stop-color="#DDEDC7"/>
</linearGradient>
</defs>
</svg>
