<svg width="22" height="22" viewBox="0 0 22 22" fill="none" xmlns="http://www.w3.org/2000/svg">
<path fill-rule="evenodd" clip-rule="evenodd" d="M4.83084 8.16748C4.83084 4.75362 7.60448 1.97998 11.0183 1.97998C14.423 1.97998 17.2058 4.76278 17.2058 8.16748V10.8166C17.2058 11.0136 17.2504 11.3019 17.3349 11.6099C17.4184 11.9142 17.5261 12.1847 17.6243 12.3564L18.6754 14.1021C19.5055 15.4856 18.8419 17.2878 17.3127 17.7941C13.2207 19.161 8.8057 19.1608 4.71381 17.7937L4.71126 17.7929C3.93905 17.5315 3.35994 16.9911 3.10101 16.2918C2.84178 15.5917 2.92997 14.8037 3.35259 14.1014L4.40531 12.3529C4.40555 12.3525 4.40578 12.3522 4.40601 12.3518C4.50639 12.183 4.61635 11.9135 4.7012 11.6079C4.78631 11.3013 4.83084 11.0134 4.83084 10.8166V8.16748ZM11.0183 3.35498C8.36387 3.35498 6.20584 5.51301 6.20584 8.16748V10.8166C6.20584 11.1791 6.1312 11.597 6.0261 11.9756C5.92094 12.3545 5.76996 12.7491 5.58636 13.057L5.58483 13.0596L4.53076 14.8103C4.53072 14.8103 4.53079 14.8102 4.53076 14.8103C4.30264 15.1895 4.28991 15.5428 4.39046 15.8144C4.49122 16.0865 4.73215 16.348 5.15086 16.49C8.95992 17.7623 13.069 17.7622 16.878 16.4896L16.8801 16.4889C17.5682 16.2614 17.8759 15.4428 17.4966 14.81C17.4965 14.8099 17.4967 14.8102 17.4966 14.81L16.4361 13.0486C16.26 12.7434 16.1125 12.3515 16.0089 11.9736C15.9054 11.5964 15.8308 11.1789 15.8308 10.8166V8.16748C15.8308 5.52218 13.6636 3.35498 11.0183 3.35498Z" fill="#389738"/>
<path fill-rule="evenodd" clip-rule="evenodd" d="M8.68239 2.68247C9.04855 1.74813 9.95761 1.09082 11.0183 1.09082C12.079 1.09082 12.9881 1.74813 13.3543 2.68247C13.4498 2.92637 13.3985 3.20339 13.2219 3.39686C13.0453 3.59032 12.7741 3.6666 12.5225 3.59356C12.2682 3.51973 12.0115 3.46402 11.7514 3.43249L11.7489 3.43218C10.9565 3.33313 10.2078 3.39192 9.5144 3.59349C9.26281 3.66663 8.99153 3.59041 8.81484 3.39694C8.63816 3.20348 8.58679 2.92641 8.68239 2.68247Z" fill="#389738"/>
<path fill-rule="evenodd" clip-rule="evenodd" d="M8.95584 17.4716C8.95584 18.0331 9.18941 18.5571 9.56114 18.9288C9.93287 19.3006 10.4569 19.5341 11.0183 19.5341C12.1511 19.5341 13.0808 18.6045 13.0808 17.4716H14.4558C14.4558 19.3638 12.9105 20.9091 11.0183 20.9091C10.0765 20.9091 9.20714 20.5194 8.58887 19.9011C7.9706 19.2829 7.58084 18.4135 7.58084 17.4716H8.95584Z" fill="#389738"/>
</svg>
